<svg width="1131" height="289" viewBox="0 0 1131 289" fill="none" xmlns="http://www.w3.org/2000/svg">
<g filter="url(#filter0_d_233_15)">
<path d="M854.148 156.103C854.148 148.512 860.302 142.358 867.893 142.358H943.49C951.081 142.358 957.235 148.512 957.235 156.103V231.7C957.235 239.291 951.081 245.445 943.49 245.445H867.893C860.302 245.445 854.148 239.291 854.148 231.7V156.103Z" fill="#575EFF"/>
<path d="M863.965 170.679C863.965 163.171 870.39 157.085 878.314 157.085H942.885C950.81 157.085 957.234 163.171 957.234 170.679V231.851C957.234 239.359 950.81 245.445 942.885 245.445H878.314C870.39 245.445 863.965 239.359 863.965 231.851V170.679Z" fill="#464EFF"/>
</g>
<path d="M0 246.971H51.0234V145.814C51.0234 121.455 62.7722 108.938 81.9059 108.938C101.04 108.938 111.781 121.455 111.781 145.814V246.971H162.805V145.814C162.805 121.455 174.554 108.938 193.687 108.938C212.821 108.938 223.563 121.455 223.563 145.814V246.971H274.586V128.898C274.586 85.2556 251.76 62.2501 213.828 62.2501C189.324 62.2501 170.525 72.3996 154.748 91.007C145.349 72.7379 127.558 62.2501 104.061 62.2501C78.2134 62.2501 62.7722 76.1211 51.0234 91.3453V65.6333H0V246.971Z" fill="#242424"/>
<path d="M369.985 250.354C394.825 250.354 411.945 241.219 424.365 227.348V246.971H473.71V141.754C473.71 117.396 467.668 97.435 454.241 83.9023C441.485 71.0463 421.344 63.6034 393.482 63.6034C362.936 63.6034 343.466 69.3548 323.661 78.151L336.417 117.396C352.865 111.306 366.628 107.584 386.097 107.584C411.609 107.584 424.701 119.426 424.701 140.739V143.784C411.945 139.386 398.853 136.341 380.727 136.341C338.095 136.341 308.22 154.61 308.22 194.193V194.87C308.22 230.731 336.081 250.354 369.985 250.354ZM385.426 214.831C368.978 214.831 357.565 206.711 357.565 192.84V192.163C357.565 175.924 370.992 167.128 392.811 167.128C405.231 167.128 416.644 169.835 425.372 173.894V183.029C425.372 201.636 409.259 214.831 385.426 214.831Z" fill="#242424"/>
<path d="M517.616 246.971H568.639V191.825L586.766 172.541L632.754 246.971H691.834L621.005 137.018L689.484 65.6333H628.39L568.639 131.605V0H517.616V246.971Z" fill="#242424"/>
<path d="M716.27 246.971H767.293V179.984C767.293 136.68 788.106 116.042 822.009 116.042H824.695V62.2501C794.484 60.8969 777.7 77.136 767.293 102.171V65.6333H716.27V246.971Z" fill="#242424"/>
<path d="M987.896 250H1013.88L1020.28 233.872H1054.97L1061.37 250H1087.99L1049.85 159.76H1025.91L987.896 250ZM1027.58 214.544L1037.69 189.2L1047.67 214.544H1027.58ZM1097.33 250H1122.16V160.4H1097.33V250Z" fill="#242424"/>
<defs>
<filter id="filter0_d_233_15" x="850.148" y="142.358" width="111.087" height="111.087" filterUnits="userSpaceOnUse" color-interpolation-filters="sRGB">
<feFlood flood-opacity="0" result="BackgroundImageFix"/>
<feColorMatrix in="SourceAlpha" type="matrix" values="0 0 0 0 0 0 0 0 0 0 0 0 0 0 0 0 0 0 127 0" result="hardAlpha"/>
<feOffset dy="4"/>
<feGaussianBlur stdDeviation="2"/>
<feComposite in2="hardAlpha" operator="out"/>
<feColorMatrix type="matrix" values="0 0 0 0 0 0 0 0 0 0 0 0 0 0 0 0 0 0 0.25 0"/>
<feBlend mode="normal" in2="BackgroundImageFix" result="effect1_dropShadow_233_15"/>
<feBlend mode="normal" in="SourceGraphic" in2="effect1_dropShadow_233_15" result="shape"/>
</filter>
</defs>
</svg>
