<svg width="301" height="85" viewBox="0 0 301 85" fill="none" xmlns="http://www.w3.org/2000/svg">
<g filter="url(#filter0_d_114_8)">
<path d="M264.805 48.3955C264.805 46.0421 266.713 44.1343 269.067 44.1343H292.503C294.857 44.1343 296.765 46.0421 296.765 48.3955V71.8323C296.765 74.1857 294.857 76.0936 292.503 76.0936H269.067C266.713 76.0936 264.805 74.1857 264.805 71.8323V48.3955Z" fill="#575EFF"/>
<path d="M267.849 52.9144C267.849 50.5868 269.841 48.7 272.298 48.7H292.316C294.773 48.7 296.765 50.5868 296.765 52.9144V71.8792C296.765 74.2068 294.773 76.0936 292.316 76.0936H272.298C269.841 76.0936 267.849 74.2068 267.849 71.8792V52.9144Z" fill="#464EFF"/>
</g>
<path d="M0 76.5665H15.8184V45.2057C15.8184 37.654 19.4608 33.7732 25.3927 33.7732C31.3246 33.7732 34.6548 37.654 34.6548 45.2057V76.5665H50.4732V45.2057C50.4732 37.654 54.1156 33.7732 60.0475 33.7732C65.9794 33.7732 69.3096 37.654 69.3096 45.2057V76.5665H85.128V39.9614C85.128 26.4312 78.0513 19.299 66.2916 19.299C58.6946 19.299 52.8668 22.4455 47.9756 28.2142C45.0616 22.5504 39.546 19.299 32.2612 19.299C24.2479 19.299 19.4608 23.5993 15.8184 28.3191V20.3478H0V76.5665Z" fill="#F9F9F9"/>
<path d="M114.704 77.6154C122.405 77.6154 127.712 74.7835 131.563 70.4832V76.5665H146.861V43.9471C146.861 36.3953 144.988 30.2071 140.825 26.0116C136.87 22.026 130.626 19.7185 121.989 19.7185C112.518 19.7185 106.482 21.5016 100.342 24.2286L104.297 36.3953C109.396 34.5074 113.663 33.3536 119.699 33.3536C127.608 33.3536 131.667 37.0246 131.667 43.6324V44.5764C127.712 43.2129 123.654 42.2689 118.034 42.2689C104.817 42.2689 95.5552 47.9328 95.5552 60.2044V60.4141C95.5552 71.532 104.193 77.6154 114.704 77.6154ZM119.491 66.6024C114.392 66.6024 110.853 64.0851 110.853 59.7848V59.5751C110.853 54.5405 115.016 51.8135 121.78 51.8135C125.631 51.8135 129.169 52.6526 131.875 53.9112V56.7431C131.875 62.5119 126.88 66.6024 119.491 66.6024Z" fill="#F9F9F9"/>
<path d="M160.473 76.5665H176.291V59.4702L181.911 53.4917L196.168 76.5665H214.484L192.526 42.4787L213.756 20.3478H194.815L176.291 40.8005V0H160.473V76.5665Z" fill="#F9F9F9"/>
<path d="M222.06 76.5665H237.878V55.7992C237.878 42.3738 244.331 35.9758 254.842 35.9758H255.674V19.299C246.308 18.8794 241.105 23.9139 237.878 31.6755V20.3478H222.06V76.5665Z" fill="#F9F9F9"/>
<defs>
<filter id="filter0_d_114_8" x="260.805" y="44.1343" width="39.9592" height="39.9592" filterUnits="userSpaceOnUse" color-interpolation-filters="sRGB">
<feFlood flood-opacity="0" result="BackgroundImageFix"/>
<feColorMatrix in="SourceAlpha" type="matrix" values="0 0 0 0 0 0 0 0 0 0 0 0 0 0 0 0 0 0 127 0" result="hardAlpha"/>
<feOffset dy="4"/>
<feGaussianBlur stdDeviation="2"/>
<feComposite in2="hardAlpha" operator="out"/>
<feColorMatrix type="matrix" values="0 0 0 0 0 0 0 0 0 0 0 0 0 0 0 0 0 0 0.25 0"/>
<feBlend mode="normal" in2="BackgroundImageFix" result="effect1_dropShadow_114_8"/>
<feBlend mode="normal" in="SourceGraphic" in2="effect1_dropShadow_114_8" result="shape"/>
</filter>
</defs>
</svg>
